<mxfile host="app.diagrams.net" modified="2021-07-27T09:32:35.561Z" agent="5.0 (Macintosh; Intel Mac OS X 10_15_7) AppleWebKit/537.36 (KHTML, like Gecko) Chrome/92.0.4515.107 Safari/537.36" etag="8MfmKZ6uebgo9lZBsHgS" version="14.9.2" type="github">
  <diagram id="iQF0Pr7U5uNDkvqILNWq" name="Page-1">
    <mxGraphModel dx="2082" dy="754" grid="1" gridSize="10" guides="1" tooltips="1" connect="1" arrows="1" fold="1" page="1" pageScale="1" pageWidth="827" pageHeight="1169" math="0" shadow="0">
      <root>
        <mxCell id="0" />
        <mxCell id="1" parent="0" />
        <mxCell id="x6H9ynXe-cWg_2qDPyPu-1" value="&lt;b&gt;&lt;font style=&quot;font-size: 20px&quot;&gt;任务1&lt;/font&gt;&lt;/b&gt;" style="text;html=1;strokeColor=none;fillColor=none;align=center;verticalAlign=middle;whiteSpace=wrap;rounded=0;" parent="1" vertex="1">
          <mxGeometry x="110" y="110" width="130" height="40" as="geometry" />
        </mxCell>
        <mxCell id="x6H9ynXe-cWg_2qDPyPu-4" value="" style="edgeStyle=orthogonalEdgeStyle;rounded=0;orthogonalLoop=1;jettySize=auto;html=1;" parent="1" source="x6H9ynXe-cWg_2qDPyPu-2" target="x6H9ynXe-cWg_2qDPyPu-3" edge="1">
          <mxGeometry relative="1" as="geometry" />
        </mxCell>
        <mxCell id="x6H9ynXe-cWg_2qDPyPu-2" value="请求流水&lt;br&gt;(&lt;span style=&quot;background-color: transparent ; color: rgb(51 , 51 , 51) ; font-family: , &amp;#34;helvetica neue&amp;#34; , &amp;#34;helvetica&amp;#34; , &amp;#34;pingfang sc&amp;#34; , &amp;#34;microsoft yahei&amp;#34; , &amp;#34;source han sans sc&amp;#34; , &amp;#34;noto sans cjk sc&amp;#34; , &amp;#34;wenquanyi micro hei&amp;#34; , sans-serif ; font-size: 11pt ; letter-spacing: 0pt ; text-align: left&quot;&gt;06000054565&lt;/span&gt;)" style="rounded=0;whiteSpace=wrap;html=1;" parent="1" vertex="1">
          <mxGeometry x="110" y="170" width="120" height="60" as="geometry" />
        </mxCell>
        <mxCell id="x6H9ynXe-cWg_2qDPyPu-8" value="" style="rounded=0;orthogonalLoop=1;jettySize=auto;html=1;" parent="1" source="x6H9ynXe-cWg_2qDPyPu-3" target="x6H9ynXe-cWg_2qDPyPu-7" edge="1">
          <mxGeometry relative="1" as="geometry" />
        </mxCell>
        <mxCell id="x6H9ynXe-cWg_2qDPyPu-60" value="&lt;font style=&quot;font-size: 20px&quot; color=&quot;#0066cc&quot;&gt;1&lt;/font&gt;" style="edgeLabel;html=1;align=center;verticalAlign=middle;resizable=0;points=[];" parent="x6H9ynXe-cWg_2qDPyPu-8" vertex="1" connectable="0">
          <mxGeometry x="-0.1333" relative="1" as="geometry">
            <mxPoint as="offset" />
          </mxGeometry>
        </mxCell>
        <mxCell id="x6H9ynXe-cWg_2qDPyPu-3" value="Flink" style="whiteSpace=wrap;html=1;rounded=0;" parent="1" vertex="1">
          <mxGeometry x="110" y="310" width="120" height="60" as="geometry" />
        </mxCell>
        <mxCell id="x6H9ynXe-cWg_2qDPyPu-7" value="clickhouse&lt;br&gt;(&lt;span style=&quot;background-color: transparent ; color: rgb(204 , 0 , 0) ; font-family: , &amp;#34;helvetica neue&amp;#34; , &amp;#34;helvetica&amp;#34; , &amp;#34;pingfang sc&amp;#34; , &amp;#34;microsoft yahei&amp;#34; , &amp;#34;source han sans sc&amp;#34; , &amp;#34;noto sans cjk sc&amp;#34; , &amp;#34;wenquanyi micro hei&amp;#34; , sans-serif ; font-size: 11pt ; font-weight: 700 ; letter-spacing: 0pt ; text-align: left&quot;&gt;ad_request_details&lt;/span&gt;)" style="shape=cylinder;whiteSpace=wrap;html=1;boundedLbl=1;backgroundOutline=1;rounded=0;" parent="1" vertex="1">
          <mxGeometry x="-50" y="465" width="120" height="80" as="geometry" />
        </mxCell>
        <mxCell id="x6H9ynXe-cWg_2qDPyPu-22" value="&lt;b&gt;&lt;font style=&quot;font-size: 20px&quot;&gt;任务2&lt;/font&gt;&lt;/b&gt;" style="text;html=1;strokeColor=none;fillColor=none;align=center;verticalAlign=middle;whiteSpace=wrap;rounded=0;" parent="1" vertex="1">
          <mxGeometry x="435" y="110" width="130" height="40" as="geometry" />
        </mxCell>
        <mxCell id="x6H9ynXe-cWg_2qDPyPu-23" value="点击流水&lt;br&gt;(&lt;a href=&quot;http://atta.pcg.com/#/dataManage/myData/attaIdDetail?attaid=07b00040057&quot; style=&quot;text-align: left&quot;&gt;&lt;span style=&quot;font-size: 11pt ; font-family: , &amp;#34;helvetica neue&amp;#34; , &amp;#34;helvetica&amp;#34; , &amp;#34;pingfang sc&amp;#34; , &amp;#34;microsoft yahei&amp;#34; , &amp;#34;source han sans sc&amp;#34; , &amp;#34;noto sans cjk sc&amp;#34; , &amp;#34;wenquanyi micro hei&amp;#34; , sans-serif ; color: rgb(30 , 111 , 255) ; background: transparent ; letter-spacing: 0pt ; vertical-align: baseline&quot;&gt;07b00040057&lt;/span&gt;&lt;/a&gt;)" style="rounded=0;whiteSpace=wrap;html=1;" parent="1" vertex="1">
          <mxGeometry x="440" y="170" width="120" height="60" as="geometry" />
        </mxCell>
        <mxCell id="x6H9ynXe-cWg_2qDPyPu-24" value="归因流水&lt;br&gt;(&lt;a href=&quot;http://atta.pcg.com/#/dataManage/myData/attaIdDetail?attaid=05f00032602&quot; style=&quot;text-align: left&quot;&gt;&lt;span style=&quot;font-size: 11pt ; font-family: , &amp;#34;helvetica neue&amp;#34; , &amp;#34;helvetica&amp;#34; , &amp;#34;pingfang sc&amp;#34; , &amp;#34;microsoft yahei&amp;#34; , &amp;#34;source han sans sc&amp;#34; , &amp;#34;noto sans cjk sc&amp;#34; , &amp;#34;wenquanyi micro hei&amp;#34; , sans-serif ; color: rgb(30 , 111 , 255) ; background: transparent ; letter-spacing: 0pt ; vertical-align: baseline&quot;&gt;05f00032602&lt;/span&gt;&lt;/a&gt;)" style="rounded=0;whiteSpace=wrap;html=1;" parent="1" vertex="1">
          <mxGeometry x="700" y="160" width="120" height="60" as="geometry" />
        </mxCell>
        <mxCell id="x6H9ynXe-cWg_2qDPyPu-33" value="" style="edgeStyle=orthogonalEdgeStyle;rounded=0;orthogonalLoop=1;jettySize=auto;html=1;" parent="1" source="x6H9ynXe-cWg_2qDPyPu-25" target="x6H9ynXe-cWg_2qDPyPu-32" edge="1">
          <mxGeometry relative="1" as="geometry" />
        </mxCell>
        <mxCell id="x6H9ynXe-cWg_2qDPyPu-25" value="Flink" style="whiteSpace=wrap;html=1;rounded=0;" parent="1" vertex="1">
          <mxGeometry x="440" y="370" width="120" height="60" as="geometry" />
        </mxCell>
        <mxCell id="x6H9ynXe-cWg_2qDPyPu-26" value="" style="edgeStyle=orthogonalEdgeStyle;rounded=0;orthogonalLoop=1;jettySize=auto;html=1;exitX=0.5;exitY=1;exitDx=0;exitDy=0;entryX=0.5;entryY=0;entryDx=0;entryDy=0;" parent="1" source="x6H9ynXe-cWg_2qDPyPu-23" target="x6H9ynXe-cWg_2qDPyPu-25" edge="1">
          <mxGeometry relative="1" as="geometry">
            <mxPoint x="180" y="240" as="sourcePoint" />
            <mxPoint x="180" y="320" as="targetPoint" />
          </mxGeometry>
        </mxCell>
        <mxCell id="x6H9ynXe-cWg_2qDPyPu-63" value="&lt;font style=&quot;font-size: 20px&quot; color=&quot;#0066cc&quot;&gt;3&lt;/font&gt;" style="edgeLabel;html=1;align=center;verticalAlign=middle;resizable=0;points=[];" parent="x6H9ynXe-cWg_2qDPyPu-26" vertex="1" connectable="0">
          <mxGeometry x="-0.7345" y="-3" relative="1" as="geometry">
            <mxPoint x="3" y="31" as="offset" />
          </mxGeometry>
        </mxCell>
        <mxCell id="x6H9ynXe-cWg_2qDPyPu-27" value="" style="edgeStyle=orthogonalEdgeStyle;rounded=0;orthogonalLoop=1;jettySize=auto;html=1;exitX=0.5;exitY=1;exitDx=0;exitDy=0;" parent="1" source="x6H9ynXe-cWg_2qDPyPu-24" edge="1">
          <mxGeometry relative="1" as="geometry">
            <mxPoint x="424" y="240" as="sourcePoint" />
            <mxPoint x="760" y="370" as="targetPoint" />
          </mxGeometry>
        </mxCell>
        <mxCell id="x6H9ynXe-cWg_2qDPyPu-64" value="&lt;font style=&quot;font-size: 20px&quot; color=&quot;#0066cc&quot;&gt;4&lt;/font&gt;" style="edgeLabel;html=1;align=center;verticalAlign=middle;resizable=0;points=[];" parent="x6H9ynXe-cWg_2qDPyPu-27" vertex="1" connectable="0">
          <mxGeometry x="-0.7478" y="-3" relative="1" as="geometry">
            <mxPoint x="3" y="61" as="offset" />
          </mxGeometry>
        </mxCell>
        <mxCell id="x6H9ynXe-cWg_2qDPyPu-29" value="" style="rounded=0;orthogonalLoop=1;jettySize=auto;html=1;exitX=0;exitY=0.5;exitDx=0;exitDy=0;entryX=0.85;entryY=0.05;entryDx=0;entryDy=0;entryPerimeter=0;" parent="1" source="x6H9ynXe-cWg_2qDPyPu-25" target="COIN9U5ztWVn_gZxnjqg-1" edge="1">
          <mxGeometry relative="1" as="geometry">
            <mxPoint x="430" y="390" as="sourcePoint" />
            <mxPoint x="180" y="470" as="targetPoint" />
          </mxGeometry>
        </mxCell>
        <mxCell id="x6H9ynXe-cWg_2qDPyPu-30" value="&lt;b&gt;&lt;font style=&quot;font-size: 15px&quot; color=&quot;#ff3333&quot;&gt;req_id=(rtaid || click_id)&lt;/font&gt;&lt;/b&gt;" style="edgeLabel;html=1;align=center;verticalAlign=middle;resizable=0;points=[];" parent="x6H9ynXe-cWg_2qDPyPu-29" vertex="1" connectable="0">
          <mxGeometry x="0.0408" y="-2" relative="1" as="geometry">
            <mxPoint y="6" as="offset" />
          </mxGeometry>
        </mxCell>
        <mxCell id="x6H9ynXe-cWg_2qDPyPu-61" value="&lt;font style=&quot;font-size: 20px&quot;&gt;&lt;font color=&quot;#0066cc&quot;&gt;2&lt;/font&gt;&lt;br&gt;&lt;/font&gt;" style="edgeLabel;html=1;align=center;verticalAlign=middle;resizable=0;points=[];" parent="x6H9ynXe-cWg_2qDPyPu-29" vertex="1" connectable="0">
          <mxGeometry x="-0.3916" y="1" relative="1" as="geometry">
            <mxPoint as="offset" />
          </mxGeometry>
        </mxCell>
        <mxCell id="x6H9ynXe-cWg_2qDPyPu-32" value="clickhouse&lt;br&gt;&lt;div style=&quot;text-align: left&quot;&gt;&lt;span&gt;(&lt;/span&gt;&lt;span style=&quot;background-color: transparent ; color: rgb(204 , 0 , 0) ; font-family: , &amp;#34;helvetica neue&amp;#34; , &amp;#34;helvetica&amp;#34; , &amp;#34;pingfang sc&amp;#34; , &amp;#34;microsoft yahei&amp;#34; , &amp;#34;source han sans sc&amp;#34; , &amp;#34;noto sans cjk sc&amp;#34; , &amp;#34;wenquanyi micro hei&amp;#34; , sans-serif ; font-size: 11pt ; font-weight: 700 ; letter-spacing: 0pt&quot;&gt;ad_click_details&lt;/span&gt;&lt;span&gt;)&lt;/span&gt;&lt;/div&gt;" style="shape=cylinder;whiteSpace=wrap;html=1;boundedLbl=1;backgroundOutline=1;rounded=0;" parent="1" vertex="1">
          <mxGeometry x="455" y="510" width="90" height="80" as="geometry" />
        </mxCell>
        <mxCell id="x6H9ynXe-cWg_2qDPyPu-56" value="" style="group" parent="1" vertex="1" connectable="0">
          <mxGeometry x="140" y="680" width="150" height="60" as="geometry" />
        </mxCell>
        <mxCell id="x6H9ynXe-cWg_2qDPyPu-47" value="请求量" style="rounded=0;whiteSpace=wrap;html=1;" parent="x6H9ynXe-cWg_2qDPyPu-56" vertex="1">
          <mxGeometry y="30" width="70" height="30" as="geometry" />
        </mxCell>
        <mxCell id="x6H9ynXe-cWg_2qDPyPu-48" value="参竞量" style="rounded=0;whiteSpace=wrap;html=1;" parent="x6H9ynXe-cWg_2qDPyPu-56" vertex="1">
          <mxGeometry x="80" y="30" width="70" height="30" as="geometry" />
        </mxCell>
        <mxCell id="x6H9ynXe-cWg_2qDPyPu-54" value="" style="shape=curlyBracket;whiteSpace=wrap;html=1;rounded=1;flipH=1;rotation=-90;" parent="x6H9ynXe-cWg_2qDPyPu-56" vertex="1">
          <mxGeometry x="65" y="-65" width="20" height="150" as="geometry" />
        </mxCell>
        <mxCell id="x6H9ynXe-cWg_2qDPyPu-57" value="" style="group" parent="1" vertex="1" connectable="0">
          <mxGeometry x="340" y="695" width="341" height="97.5" as="geometry" />
        </mxCell>
        <mxCell id="COIN9U5ztWVn_gZxnjqg-11" value="" style="group" vertex="1" connectable="0" parent="x6H9ynXe-cWg_2qDPyPu-57">
          <mxGeometry x="74" y="30" width="161" height="30" as="geometry" />
        </mxCell>
        <mxCell id="x6H9ynXe-cWg_2qDPyPu-50" value="点击量" style="rounded=0;whiteSpace=wrap;html=1;" parent="COIN9U5ztWVn_gZxnjqg-11" vertex="1">
          <mxGeometry width="70" height="30" as="geometry" />
        </mxCell>
        <mxCell id="x6H9ynXe-cWg_2qDPyPu-51" value="点击量&amp;amp;&lt;br&gt;参竞量" style="rounded=0;whiteSpace=wrap;html=1;" parent="COIN9U5ztWVn_gZxnjqg-11" vertex="1">
          <mxGeometry x="91" width="70" height="30" as="geometry" />
        </mxCell>
        <mxCell id="COIN9U5ztWVn_gZxnjqg-7" value="" style="shape=curlyBracket;whiteSpace=wrap;html=1;rounded=1;flipH=1;rotation=-90;" vertex="1" parent="x6H9ynXe-cWg_2qDPyPu-57">
          <mxGeometry x="144.5" y="-67.5" width="20" height="165" as="geometry" />
        </mxCell>
        <mxCell id="x6H9ynXe-cWg_2qDPyPu-58" value="" style="rounded=0;orthogonalLoop=1;jettySize=auto;html=1;entryX=0.1;entryY=0.5;entryDx=0;entryDy=0;entryPerimeter=0;exitX=0.5;exitY=1;exitDx=0;exitDy=0;" parent="1" source="x6H9ynXe-cWg_2qDPyPu-7" target="x6H9ynXe-cWg_2qDPyPu-54" edge="1">
          <mxGeometry relative="1" as="geometry">
            <mxPoint x="180" y="380" as="sourcePoint" />
            <mxPoint x="180" y="470" as="targetPoint" />
          </mxGeometry>
        </mxCell>
        <mxCell id="x6H9ynXe-cWg_2qDPyPu-59" value="" style="rounded=0;orthogonalLoop=1;jettySize=auto;html=1;entryX=0.1;entryY=0.5;entryDx=0;entryDy=0;entryPerimeter=0;exitX=0.5;exitY=1;exitDx=0;exitDy=0;" parent="1" source="x6H9ynXe-cWg_2qDPyPu-32" target="COIN9U5ztWVn_gZxnjqg-7" edge="1">
          <mxGeometry relative="1" as="geometry">
            <mxPoint x="180" y="550" as="sourcePoint" />
            <mxPoint x="508.75" y="697" as="targetPoint" />
          </mxGeometry>
        </mxCell>
        <mxCell id="COIN9U5ztWVn_gZxnjqg-1" value="Hbase&lt;br&gt;(&lt;span style=&quot;color: rgb(204 , 0 , 0) ; font-size: 14.6667px ; font-weight: 700 ; text-align: left&quot;&gt;ad_request_kv_details&lt;/span&gt;)" style="shape=cylinder;whiteSpace=wrap;html=1;boundedLbl=1;backgroundOutline=1;rounded=0;" vertex="1" parent="1">
          <mxGeometry x="150" y="465" width="120" height="85" as="geometry" />
        </mxCell>
        <mxCell id="COIN9U5ztWVn_gZxnjqg-2" value="" style="rounded=0;orthogonalLoop=1;jettySize=auto;html=1;exitX=0.5;exitY=1;exitDx=0;exitDy=0;entryX=0.5;entryY=0;entryDx=0;entryDy=0;" edge="1" parent="1" source="x6H9ynXe-cWg_2qDPyPu-3" target="COIN9U5ztWVn_gZxnjqg-1">
          <mxGeometry relative="1" as="geometry">
            <mxPoint x="180" y="380" as="sourcePoint" />
            <mxPoint x="180" y="470" as="targetPoint" />
          </mxGeometry>
        </mxCell>
        <mxCell id="COIN9U5ztWVn_gZxnjqg-3" value="&lt;font style=&quot;font-size: 20px&quot; color=&quot;#0066cc&quot;&gt;5&lt;/font&gt;" style="edgeLabel;html=1;align=center;verticalAlign=middle;resizable=0;points=[];" vertex="1" connectable="0" parent="COIN9U5ztWVn_gZxnjqg-2">
          <mxGeometry x="-0.1333" relative="1" as="geometry">
            <mxPoint as="offset" />
          </mxGeometry>
        </mxCell>
        <mxCell id="COIN9U5ztWVn_gZxnjqg-4" value="&lt;span style=&quot;font-size: 20px&quot;&gt;&lt;b&gt;任务3&lt;/b&gt;&lt;/span&gt;" style="text;html=1;strokeColor=none;fillColor=none;align=center;verticalAlign=middle;whiteSpace=wrap;rounded=0;" vertex="1" parent="1">
          <mxGeometry x="710" y="110" width="130" height="40" as="geometry" />
        </mxCell>
        <mxCell id="COIN9U5ztWVn_gZxnjqg-5" value="Flink" style="whiteSpace=wrap;html=1;rounded=0;" vertex="1" parent="1">
          <mxGeometry x="700" y="370" width="120" height="60" as="geometry" />
        </mxCell>
        <mxCell id="COIN9U5ztWVn_gZxnjqg-6" value="clickhouse&lt;br&gt;&lt;div style=&quot;text-align: left&quot;&gt;&lt;span&gt;(&lt;/span&gt;&lt;span style=&quot;background-color: transparent ; color: rgb(204 , 0 , 0) ; font-family: , &amp;#34;helvetica neue&amp;#34; , &amp;#34;helvetica&amp;#34; , &amp;#34;pingfang sc&amp;#34; , &amp;#34;microsoft yahei&amp;#34; , &amp;#34;source han sans sc&amp;#34; , &amp;#34;noto sans cjk sc&amp;#34; , &amp;#34;wenquanyi micro hei&amp;#34; , sans-serif ; font-size: 11pt ; font-weight: 700 ; letter-spacing: 0pt&quot;&gt;ad_conversion_details&lt;/span&gt;&lt;span&gt;)&lt;/span&gt;&lt;/div&gt;" style="shape=cylinder;whiteSpace=wrap;html=1;boundedLbl=1;backgroundOutline=1;rounded=0;" vertex="1" parent="1">
          <mxGeometry x="715" y="520" width="90" height="80" as="geometry" />
        </mxCell>
        <mxCell id="x6H9ynXe-cWg_2qDPyPu-52" value="转化量" style="rounded=0;whiteSpace=wrap;html=1;" parent="1" vertex="1">
          <mxGeometry x="710" y="710" width="70" height="30" as="geometry" />
        </mxCell>
        <mxCell id="x6H9ynXe-cWg_2qDPyPu-53" value="点击量&amp;amp;转化量" style="rounded=0;whiteSpace=wrap;html=1;" parent="1" vertex="1">
          <mxGeometry x="800" y="710" width="70" height="30" as="geometry" />
        </mxCell>
        <mxCell id="COIN9U5ztWVn_gZxnjqg-8" value="" style="shape=curlyBracket;whiteSpace=wrap;html=1;rounded=1;flipH=1;rotation=-90;" vertex="1" parent="1">
          <mxGeometry x="777.5" y="612.5" width="20" height="160" as="geometry" />
        </mxCell>
        <mxCell id="COIN9U5ztWVn_gZxnjqg-9" value="" style="rounded=0;orthogonalLoop=1;jettySize=auto;html=1;entryX=0.1;entryY=0.5;entryDx=0;entryDy=0;entryPerimeter=0;exitX=0.5;exitY=1;exitDx=0;exitDy=0;" edge="1" parent="1" source="COIN9U5ztWVn_gZxnjqg-6" target="COIN9U5ztWVn_gZxnjqg-8">
          <mxGeometry relative="1" as="geometry">
            <mxPoint x="510" y="600" as="sourcePoint" />
            <mxPoint x="431.5" y="712" as="targetPoint" />
          </mxGeometry>
        </mxCell>
        <mxCell id="COIN9U5ztWVn_gZxnjqg-10" value="" style="rounded=0;orthogonalLoop=1;jettySize=auto;html=1;exitX=0.5;exitY=1;exitDx=0;exitDy=0;" edge="1" parent="1" source="COIN9U5ztWVn_gZxnjqg-5">
          <mxGeometry relative="1" as="geometry">
            <mxPoint x="770" y="610" as="sourcePoint" />
            <mxPoint x="760" y="520" as="targetPoint" />
          </mxGeometry>
        </mxCell>
        <mxCell id="COIN9U5ztWVn_gZxnjqg-12" value="" style="rounded=0;orthogonalLoop=1;jettySize=auto;html=1;exitX=0;exitY=0.5;exitDx=0;exitDy=0;entryX=0.85;entryY=0.05;entryDx=0;entryDy=0;entryPerimeter=0;" edge="1" parent="1" source="COIN9U5ztWVn_gZxnjqg-5" target="COIN9U5ztWVn_gZxnjqg-1">
          <mxGeometry relative="1" as="geometry">
            <mxPoint x="450" y="410" as="sourcePoint" />
            <mxPoint x="262" y="479.25" as="targetPoint" />
            <Array as="points">
              <mxPoint x="600" y="300" />
              <mxPoint x="400" y="350" />
            </Array>
          </mxGeometry>
        </mxCell>
        <mxCell id="COIN9U5ztWVn_gZxnjqg-13" value="&lt;b&gt;&lt;font style=&quot;font-size: 15px&quot; color=&quot;#ff3333&quot;&gt;req_id=(rtaid || click_id)&lt;/font&gt;&lt;/b&gt;" style="edgeLabel;html=1;align=center;verticalAlign=middle;resizable=0;points=[];" vertex="1" connectable="0" parent="COIN9U5ztWVn_gZxnjqg-12">
          <mxGeometry x="0.0408" y="-2" relative="1" as="geometry">
            <mxPoint x="-135" y="48" as="offset" />
          </mxGeometry>
        </mxCell>
        <mxCell id="COIN9U5ztWVn_gZxnjqg-14" value="&lt;font style=&quot;font-size: 20px&quot;&gt;&lt;font color=&quot;#0066cc&quot;&gt;6&lt;/font&gt;&lt;br&gt;&lt;/font&gt;" style="edgeLabel;html=1;align=center;verticalAlign=middle;resizable=0;points=[];" vertex="1" connectable="0" parent="COIN9U5ztWVn_gZxnjqg-12">
          <mxGeometry x="-0.3916" y="1" relative="1" as="geometry">
            <mxPoint as="offset" />
          </mxGeometry>
        </mxCell>
      </root>
    </mxGraphModel>
  </diagram>
</mxfile>
